<svg width="31" height="30" viewBox="0 0 31 30" fill="none" xmlns="http://www.w3.org/2000/svg">
<path d="M21.7498 10.9C21.5123 10.9 21.2748 10.8125 21.0873 10.625L18.5873 8.12502C18.2248 7.76252 18.2248 7.16252 18.5873 6.80002C18.9498 6.43752 19.5498 6.43752 19.9123 6.80002L21.7498 8.63752L26.0873 4.31252C26.4498 3.95002 27.0498 3.95002 27.4123 4.31252C27.7748 4.67502 27.7748 5.27502 27.4123 5.63752L22.4123 10.6375C22.2248 10.8 21.9873 10.9 21.7498 10.9Z" fill="#F6BB41"/>
<path d="M14.3125 18.6875L12 21C11.5125 21.4875 10.7375 21.4875 10.2375 21.0125C10.1 20.875 9.9625 20.75 9.825 20.6125C8.5375 19.3125 7.375 17.95 6.3375 16.525C5.3125 15.1 4.4875 13.675 3.8875 12.2625C3.3 10.8375 3 9.475 3 8.175C3 7.325 3.15 6.5125 3.45 5.7625C3.75 5 4.225 4.3 4.8875 3.675C5.6875 2.8875 6.5625 2.5 7.4875 2.5C7.8375 2.5 8.1875 2.575 8.5 2.725C8.825 2.875 9.1125 3.1 9.3375 3.425L12.2375 7.5125C12.4625 7.825 12.625 8.1125 12.7375 8.3875C12.85 8.65 12.9125 8.9125 12.9125 9.15C12.9125 9.45 12.825 9.75 12.65 10.0375C12.4875 10.325 12.25 10.625 11.95 10.925L11 11.9125C10.8625 12.05 10.8 12.2125 10.8 12.4125C10.8 12.5125 10.8125 12.6 10.8375 12.7C10.875 12.8 10.9125 12.875 10.9375 12.95C11.1625 13.3625 11.55 13.9 12.1 14.55C12.6625 15.2 13.2625 15.8625 13.9125 16.525C14.0375 16.65 14.175 16.775 14.3 16.9C14.8 17.3875 14.8125 18.1875 14.3125 18.6875Z" fill="#F6BB41"/>
<path d="M27.9625 22.9125C27.9625 23.2625 27.9 23.6251 27.775 23.975C27.7375 24.075 27.7 24.175 27.65 24.275C27.4375 24.725 27.1625 25.1501 26.8 25.5501C26.1875 26.225 25.5125 26.7126 24.75 27.0251C24.7375 27.0251 24.725 27.0375 24.7125 27.0375C23.975 27.3375 23.175 27.5 22.3125 27.5C21.0375 27.5 19.675 27.2001 18.2375 26.5876C16.8 25.975 15.3625 25.1501 13.9375 24.1126C13.45 23.7501 12.9625 23.3875 12.5 23L16.5875 18.9125C16.9375 19.175 17.25 19.375 17.5125 19.5125C17.575 19.5375 17.65 19.575 17.7375 19.6125C17.8375 19.65 17.9375 19.6625 18.05 19.6625C18.2625 19.6625 18.425 19.5875 18.5625 19.45L19.5125 18.5125C19.825 18.2 20.125 17.9625 20.4125 17.8125C20.7 17.6375 20.9875 17.55 21.3 17.55C21.5375 17.55 21.7875 17.6 22.0625 17.7125C22.3375 17.825 22.625 17.9875 22.9375 18.2L27.075 21.1375C27.4 21.3625 27.625 21.625 27.7625 21.9375C27.8875 22.25 27.9625 22.5625 27.9625 22.9125Z" fill="#F6BB41"/>
</svg>
