<svg width="24" height="25" viewBox="0 0 24 25" fill="none" xmlns="http://www.w3.org/2000/svg">
<path d="M7.5 23C8.32843 23 9 22.3285 9 21.5C9 20.6716 8.32843 20 7.5 20C6.67157 20 6 20.6716 6 21.5C6 22.3285 6.67157 23 7.5 23Z" fill="#2A254B"/>
<path d="M18 23C18.8284 23 19.5 22.3285 19.5 21.5C19.5 20.6716 18.8284 20 18 20C17.1716 20 16.5 20.6716 16.5 21.5C16.5 22.3285 17.1716 23 18 23Z" fill="#2A254B"/>
<path d="M21 5.75003H4.365L3.75 2.60003C3.71494 2.42807 3.62068 2.27386 3.48364 2.16423C3.3466 2.0546 3.17546 1.99649 3 2.00003H0V3.50003H2.385L5.25 17.9C5.28506 18.072 5.37932 18.2262 5.51636 18.3358C5.6534 18.4455 5.82454 18.5036 6 18.5H19.5V17H6.615L6 14H19.5C19.6734 14.0043 19.8429 13.9483 19.9796 13.8416C20.1163 13.735 20.2119 13.5842 20.25 13.415L21.75 6.66503C21.7751 6.55375 21.7745 6.4382 21.7483 6.32718C21.722 6.21616 21.6708 6.11259 21.5985 6.02436C21.5261 5.93613 21.4347 5.86556 21.3309 5.81802C21.2272 5.77048 21.114 5.74723 21 5.75003ZM18.9 12.5H5.715L4.665 7.25003H20.0625L18.9 12.5Z" fill="#2A254B"/>
</svg>
