<svg width="31" height="30" viewBox="0 0 31 30" fill="none" xmlns="http://www.w3.org/2000/svg">
<path d="M16.9875 7.5H8.9875C8.6625 7.5 8.35 7.5125 8.05 7.55C4.6875 7.8375 3 9.825 3 13.4875V18.4875C3 23.4875 5 24.475 8.9875 24.475H9.4875C9.7625 24.475 10.125 24.6625 10.2875 24.875L11.7875 26.875C12.45 27.7625 13.525 27.7625 14.1875 26.875L15.6875 24.875C15.875 24.625 16.175 24.475 16.4875 24.475H16.9875C20.65 24.475 22.6375 22.8 22.925 19.425C22.9625 19.125 22.975 18.8125 22.975 18.4875V13.4875C22.975 9.5 20.975 7.5 16.9875 7.5ZM8.625 17.5C7.925 17.5 7.375 16.9375 7.375 16.25C7.375 15.5625 7.9375 15 8.625 15C9.3125 15 9.875 15.5625 9.875 16.25C9.875 16.9375 9.3125 17.5 8.625 17.5ZM12.9875 17.5C12.2875 17.5 11.7375 16.9375 11.7375 16.25C11.7375 15.5625 12.3 15 12.9875 15C13.675 15 14.2375 15.5625 14.2375 16.25C14.2375 16.9375 13.6875 17.5 12.9875 17.5ZM17.3625 17.5C16.6625 17.5 16.1125 16.9375 16.1125 16.25C16.1125 15.5625 16.675 15 17.3625 15C18.05 15 18.6125 15.5625 18.6125 16.25C18.6125 16.9375 18.05 17.5 17.3625 17.5Z" fill="#F6BB41"/>
<path d="M27.9753 8.4875V13.4875C27.9753 15.9875 27.2003 17.6875 25.6503 18.625C25.2753 18.85 24.8378 18.55 24.8378 18.1125L24.8503 13.4875C24.8503 8.4875 21.9878 5.625 16.9878 5.625L9.37531 5.6375C8.93781 5.6375 8.63781 5.2 8.86281 4.825C9.80031 3.275 11.5003 2.5 13.9878 2.5H21.9878C25.9753 2.5 27.9753 4.5 27.9753 8.4875Z" fill="#F6BB41"/>
</svg>
