<svg width="17" height="17" viewBox="0 0 17 17" fill="none" xmlns="http://www.w3.org/2000/svg">
<path d="M8.5 8.5H2.5V9.5H8.5V8.5Z" fill="#F6BB41"/>
<path d="M6.5 6H1.5V7H6.5V6Z" fill="#F6BB41"/>
<path d="M15.4594 8.8032L13.9594 5.3032C13.921 5.21319 13.857 5.13646 13.7753 5.08256C13.6936 5.02865 13.5979 4.99994 13.5 5H12V4C12 3.86739 11.9473 3.74021 11.8536 3.64645C11.7598 3.55268 11.6326 3.5 11.5 3.5H3.5V4.5H11V10.7781C10.7722 10.9104 10.5728 11.0865 10.4134 11.2962C10.254 11.5059 10.1376 11.7451 10.071 12H6.92895C6.80725 11.5287 6.51784 11.1179 6.11495 10.8447C5.71206 10.5715 5.22336 10.4546 4.74045 10.5159C4.25754 10.5773 3.81358 10.8126 3.49179 11.1779C3.16999 11.5431 2.99246 12.0132 2.99246 12.5C2.99246 12.9868 3.16999 13.4569 3.49179 13.8221C3.81358 14.1874 4.25754 14.4227 4.74045 14.4841C5.22336 14.5454 5.71206 14.4285 6.11495 14.1553C6.51784 13.8821 6.80725 13.4713 6.92895 13H10.071C10.1801 13.4289 10.4289 13.8092 10.7783 14.0808C11.1276 14.3525 11.5575 14.4999 12 14.4999C12.4425 14.4999 12.8724 14.3525 13.2217 14.0808C13.5711 13.8092 13.8199 13.4289 13.929 13H15C15.1326 13 15.2598 12.9473 15.3536 12.8536C15.4473 12.7598 15.5 12.6326 15.5 12.5V9C15.5 8.93233 15.4862 8.86537 15.4594 8.8032ZM5 13.5C4.80222 13.5 4.60888 13.4414 4.44443 13.3315C4.27998 13.2216 4.15181 13.0654 4.07612 12.8827C4.00043 12.7 3.98063 12.4989 4.01921 12.3049C4.0578 12.1109 4.15304 11.9327 4.29289 11.7929C4.43275 11.653 4.61093 11.5578 4.80491 11.5192C4.99889 11.4806 5.19996 11.5004 5.38268 11.5761C5.56541 11.6518 5.72159 11.78 5.83147 11.9444C5.94135 12.1089 6 12.3022 6 12.5C5.9997 12.7651 5.89424 13.0193 5.70677 13.2068C5.5193 13.3942 5.26512 13.4997 5 13.5ZM12 6H13.1704L14.242 8.5H12V6ZM12 13.5C11.8022 13.5 11.6089 13.4414 11.4444 13.3315C11.28 13.2216 11.1518 13.0654 11.0761 12.8827C11.0004 12.7 10.9806 12.4989 11.0192 12.3049C11.0578 12.1109 11.153 11.9327 11.2929 11.7929C11.4327 11.653 11.6109 11.5578 11.8049 11.5192C11.9989 11.4806 12.2 11.5004 12.3827 11.5761C12.5654 11.6518 12.7216 11.78 12.8315 11.9444C12.9414 12.1089 13 12.3022 13 12.5C12.9997 12.7651 12.8942 13.0193 12.7068 13.2068C12.5193 13.3942 12.2651 13.4997 12 13.5ZM14.5 12H13.929C13.8188 11.5717 13.5696 11.1921 13.2206 10.9207C12.8715 10.6492 12.4422 10.5013 12 10.5V9.5H14.5V12Z" fill="#F6BB41"/>
</svg>
