<svg width="31" height="30" viewBox="0 0 31 30" fill="none" xmlns="http://www.w3.org/2000/svg">
<path d="M22.7623 6.8625V7.7875L18.3373 5.225C16.6623 4.2625 14.3248 4.2625 12.6623 5.225L8.2373 7.8V6.8625C8.2373 4.05 9.7748 2.5 12.5873 2.5H18.4123C21.2248 2.5 22.7623 4.05 22.7623 6.8625Z" fill="url(#paint0_linear_62_2856)"/>
<path d="M22.8 9.96255L22.625 9.87505L20.925 8.90005L17.4 6.86255C16.325 6.23755 14.675 6.23755 13.6 6.86255L10.075 8.88755L8.375 9.88755L8.15 10C5.9625 11.475 5.8125 11.75 5.8125 14.1125V19.7625C5.8125 22.125 5.9625 22.4 8.2 23.9125L13.6 27.0251C14.1375 27.35 14.8125 27.4875 15.5 27.4875C16.175 27.4875 16.8625 27.3376 17.4 27.0251L22.85 23.875C25.05 22.4 25.1875 22.1375 25.1875 19.7625V14.1125C25.1875 11.75 25.0375 11.475 22.8 9.96255ZM18.9875 16.875L18.225 17.8125C18.1 17.95 18.0125 18.2125 18.025 18.4L18.1 19.6C18.15 20.3375 17.625 20.7126 16.9375 20.4501L15.825 20C15.65 19.9375 15.3625 19.9375 15.1875 20L14.075 20.4375C13.3875 20.7125 12.8625 20.325 12.9125 19.5875L12.9875 18.3875C13 18.2 12.9125 17.9375 12.7875 17.8L12.0125 16.875C11.5375 16.3125 11.75 15.6875 12.4625 15.5L13.625 15.2C13.8125 15.15 14.025 14.975 14.125 14.825L14.775 13.825C15.175 13.2 15.8125 13.2 16.225 13.825L16.875 14.825C16.975 14.9875 17.2 15.15 17.375 15.2L18.5375 15.5C19.25 15.6875 19.4625 16.3125 18.9875 16.875Z" fill="url(#paint1_linear_62_2856)"/>
<defs>
<linearGradient id="paint0_linear_62_2856" x1="35" y1="-45" x2="-11" y2="26.5" gradientUnits="userSpaceOnUse">
<stop offset="0.390186" stop-color="#59A49E"/>
<stop offset="0.767343" stop-color="#A6D8D2"/>
</linearGradient>
<linearGradient id="paint1_linear_62_2856" x1="8" y1="25.0001" x2="25.5" y2="6.00006" gradientUnits="userSpaceOnUse">
<stop offset="0.212076" stop-color="#FFB23F"/>
<stop offset="0.720856" stop-color="#FAD8A5"/>
</linearGradient>
</defs>
</svg>
