<svg width="22" height="27" viewBox="0 0 22 27" fill="none" xmlns="http://www.w3.org/2000/svg">
<rect width="22" height="25.7575" transform="translate(0 0.476562)" fill="white"/>
<path d="M0 6.91597C0 5.1376 1.23105 3.69629 2.75 3.69629H19.25C20.7668 3.69629 22 5.1376 22 6.91597V19.7947C22 21.5706 20.7668 23.0144 19.25 23.0144H2.75C1.23105 23.0144 0 21.5706 0 19.7947V6.91597ZM2.0625 6.91597V8.02777L9.47461 15.1513C10.3598 16.0065 11.6402 16.0065 12.5254 15.1513L19.9375 8.02777V6.8707C19.9375 6.47327 19.6281 6.06577 19.25 6.06577H2.75C2.37016 6.06577 2.0625 6.47327 2.0625 6.8707V6.91597ZM2.0625 11.1519V19.7947C2.0625 20.2374 2.37016 20.5996 2.75 20.5996H19.25C19.6281 20.5996 19.9375 20.2374 19.9375 19.7947V11.1519L13.8359 17.0177C12.1859 18.6024 9.81406 18.6024 8.12539 17.0177L2.0625 11.1519Z" fill="#2A254B" fill-opacity="0.5"/>
</svg>
