<svg width="29" height="28" viewBox="0 0 29 28" fill="none" xmlns="http://www.w3.org/2000/svg">
<path d="M25.3763 3.24077C25.8301 3.54153 26.0682 4.06141 25.9828 4.58129L23.1075 22.4549C23.0401 22.8717 22.775 23.2369 22.3886 23.4431C22.0023 23.6493 21.5395 23.6751 21.1307 23.5119L15.4563 21.2562L13.6547 24.4571C13.4211 24.8739 12.9224 25.0844 12.4417 24.9684C11.961 24.8524 11.624 24.4399 11.624 23.9673V19.8426C11.624 19.6149 11.7049 19.3915 11.8531 19.211L19.2797 10.0766C19.392 9.77151 18.9876 9.46216 18.6956 9.71566L10.6536 16.6718L9.21589 17.9135C8.80255 18.2701 8.214 18.3689 7.69734 18.1627L3.87849 16.6417C3.37531 16.4397 3.03386 15.9843 3.00241 15.4601C2.97096 14.936 3.24951 14.4419 3.72574 14.1798L23.8533 3.18062C24.334 2.91853 24.9271 2.94431 25.3808 3.24077H25.3763Z" fill="white"/>
</svg>
