<svg width="24" height="25" viewBox="0 0 24 25" fill="none" xmlns="http://www.w3.org/2000/svg">
<path d="M21.75 21.1894L16.0859 15.5253C17.447 13.8914 18.1257 11.7956 17.9808 9.67393C17.836 7.5523 16.8788 5.56818 15.3083 4.13432C13.7378 2.70047 11.675 1.92727 9.549 1.97558C7.42298 2.0239 5.39742 2.89 3.89371 4.39371C2.39 5.89742 1.5239 7.92298 1.47558 10.049C1.42727 12.175 2.20047 14.2378 3.63432 15.8083C5.06818 17.3788 7.0523 18.336 9.17393 18.4808C11.2956 18.6257 13.3914 17.947 15.0253 16.5859L20.6894 22.25L21.75 21.1894ZM2.99999 10.25C2.99999 8.91497 3.39588 7.60993 4.13757 6.4999C4.87927 5.38986 5.93348 4.5247 7.16688 4.01381C8.40028 3.50292 9.75748 3.36924 11.0669 3.62969C12.3762 3.89014 13.579 4.53302 14.523 5.47702C15.467 6.42103 16.1098 7.62376 16.3703 8.93314C16.6307 10.2425 16.4971 11.5997 15.9862 12.8331C15.4753 14.0665 14.6101 15.1207 13.5001 15.8624C12.3901 16.6041 11.085 17 9.74999 17C7.96039 16.998 6.24466 16.2862 4.97922 15.0208C3.71378 13.7553 3.00198 12.0396 2.99999 10.25Z" fill="#2A254B"/>
</svg>
