<svg width="24" height="25" viewBox="0 0 24 25" fill="none" xmlns="http://www.w3.org/2000/svg">
<path d="M12 6.5C11.2583 6.5 10.5333 6.71993 9.91662 7.13199C9.29993 7.54404 8.81928 8.12971 8.53546 8.81494C8.25163 9.50016 8.17736 10.2542 8.32206 10.9816C8.46675 11.709 8.82391 12.3772 9.34835 12.9017C9.8728 13.4261 10.541 13.7833 11.2684 13.9279C11.9958 14.0726 12.7498 13.9984 13.4351 13.7145C14.1203 13.4307 14.706 12.9501 15.118 12.3334C15.5301 11.7167 15.75 10.9917 15.75 10.25C15.75 9.25544 15.3549 8.30161 14.6517 7.59835C13.9484 6.89509 12.9946 6.5 12 6.5ZM12 12.5C11.555 12.5 11.12 12.368 10.75 12.1208C10.38 11.8736 10.0916 11.5222 9.92128 11.111C9.75098 10.6999 9.70642 10.2475 9.79324 9.81105C9.88005 9.37459 10.0943 8.97368 10.409 8.65901C10.7237 8.34434 11.1246 8.13005 11.5611 8.04323C11.9975 7.95642 12.4499 8.00097 12.861 8.17127C13.2722 8.34157 13.6236 8.62996 13.8708 8.99997C14.118 9.36998 14.25 9.80499 14.25 10.25C14.2493 10.8465 14.0121 11.4184 13.5903 11.8402C13.1684 12.2621 12.5965 12.4993 12 12.5Z" fill="#2A254B"/>
<path d="M12 2C9.9233 2 7.89323 2.61581 6.16652 3.76957C4.4398 4.92332 3.09399 6.5632 2.29927 8.48182C1.50455 10.4004 1.29661 12.5116 1.70176 14.5484C2.1069 16.5852 3.10693 18.4562 4.57538 19.9246C6.04383 21.3931 7.91476 22.3931 9.95156 22.7982C11.9884 23.2034 14.0996 22.9955 16.0182 22.2007C17.9368 21.406 19.5767 20.0602 20.7304 18.3335C21.8842 16.6068 22.5 14.5767 22.5 12.5C22.4969 9.71619 21.3896 7.0473 19.4212 5.07884C17.4527 3.11039 14.7838 2.00314 12 2ZM7.5 20.2824V19.25C7.50066 18.6535 7.73792 18.0815 8.15974 17.6597C8.58155 17.2379 9.15347 17.0007 9.75 17H14.25C14.8465 17.0007 15.4185 17.2379 15.8403 17.6597C16.2621 18.0815 16.4993 18.6535 16.5 19.25V20.2824C15.1344 21.0798 13.5814 21.5 12 21.5C10.4186 21.5 8.86563 21.0798 7.5 20.2824ZM17.9944 19.1944C17.9795 18.2105 17.5786 17.272 16.8782 16.5809C16.1778 15.8899 15.2339 15.5017 14.25 15.5H9.75C8.76608 15.5017 7.8222 15.8899 7.1218 16.5809C6.42139 17.272 6.02054 18.2105 6.00563 19.1944C4.64555 17.9799 3.68643 16.381 3.25526 14.6093C2.82408 12.8377 2.9412 10.9769 3.59111 9.27324C4.24101 7.56963 5.39304 6.1036 6.89466 5.06927C8.39627 4.03495 10.1766 3.48112 12 3.48112C13.8234 3.48112 15.6037 4.03495 17.1054 5.06927C18.607 6.1036 19.759 7.56963 20.4089 9.27324C21.0588 10.9769 21.1759 12.8377 20.7448 14.6093C20.3136 16.381 19.3545 17.9799 17.9944 19.1944Z" fill="#2A254B"/>
</svg>
