<svg width="226" height="55" viewBox="0 0 226 55" fill="none" xmlns="http://www.w3.org/2000/svg">
<rect width="55" height="55" rx="5" fill="#FFC857"/>
<path d="M25.022 24.9002C24.8931 24.8246 24.7418 24.7996 24.6012 24.8306C24.4606 24.8615 24.3423 24.946 24.2723 25.0654L22.1611 28.6659C22.0911 28.7852 22.0752 28.9297 22.1168 29.0675C22.1584 29.2054 22.2541 29.3252 22.383 29.4008C22.5118 29.4763 22.6632 29.5014 22.8038 29.4704C22.9444 29.4394 23.0627 29.3549 23.1327 29.2356L25.2439 25.6351C25.3138 25.5157 25.3298 25.3712 25.2882 25.2334C25.2466 25.0956 25.1508 24.9757 25.022 24.9002ZM32.1171 20.5932C34.7996 22.1662 37.4183 22.6856 37.9646 21.754C38.5108 20.8223 36.7779 18.7901 34.0963 17.2178C31.4148 15.6454 28.7951 15.1254 28.2488 16.057C27.7025 16.9887 29.4345 19.0203 32.1171 20.5932ZM32.6449 19.6931C31.035 18.7491 29.9666 17.5808 30.2579 17.0839C30.5493 16.587 32.0906 16.9489 33.7005 17.8929C35.3104 18.8368 36.3787 20.0052 36.0874 20.5021C35.796 20.9989 34.2548 20.6371 32.6449 19.6931Z" fill="#2A254B"/>
<path d="M44.2396 26.7725C43.9962 25.9665 43.444 25.2621 42.6987 24.8069C43.2258 23.812 43.1857 22.7204 42.9199 21.7843C42.6461 20.8194 42.1049 19.8876 41.4574 19.0459C40.1557 17.3536 38.1609 15.6699 35.8097 14.2912C33.4614 12.9143 31.017 11.9951 28.9056 11.686C27.8548 11.5319 26.7764 11.514 25.8017 11.7469C24.8134 11.9827 23.7973 12.5154 23.193 13.5461L18.7669 21.0945C18.3531 20.769 17.8722 20.5364 17.3628 20.4154C16.8534 20.2944 16.3295 20.2883 15.8331 20.3976L14.7721 20.6306C14.3544 20.7227 13.9651 20.8945 13.6264 21.1362C13.2878 21.378 13.0065 21.6849 12.7985 22.0396C12.5906 22.3942 12.46 22.7896 12.4144 23.2032C12.3688 23.6168 12.409 24.0404 12.5327 24.4499L13.9829 29.2532L13.1648 30.6484C12.5605 31.6791 12.5918 32.826 12.868 33.8044C13.1422 34.7684 13.6849 35.6999 14.332 36.5426C15.6327 38.2342 17.6275 39.918 19.9777 41.2961C21.9986 42.481 24.0754 43.319 25.9432 43.7296C27.0676 43.9764 28.1993 44.086 29.2313 43.9714C30.452 43.8356 31.8368 43.3376 32.5963 42.0423L38.1646 32.546L42.3149 31.6314C42.7326 31.5394 43.1219 31.3676 43.4606 31.1258C43.7992 30.8841 44.0805 30.5771 44.2885 30.2225C44.4964 29.8678 44.627 29.4724 44.6726 29.0589C44.7182 28.6453 44.678 28.2217 44.5543 27.8122L44.2396 26.7725ZM18.602 25.829L23.3179 17.7864C23.5037 18.1687 23.725 18.5416 23.9696 18.9016L21.8853 22.4562C21.8154 22.5755 21.7994 22.72 21.841 22.8578C21.8826 22.9957 21.9784 23.1155 22.1072 23.1911C22.2361 23.2666 22.3874 23.2917 22.528 23.2607C22.6686 23.2297 22.7869 23.1452 22.8569 23.0259L24.7069 19.8709C26.0019 21.4165 27.8558 22.933 30.0059 24.1937C32.3551 25.5712 34.7995 26.4904 36.91 26.799C37.9622 26.9527 39.0401 26.9715 40.0149 26.7386C40.3364 26.6623 40.6606 26.5548 40.9722 26.4085C41.2248 26.4055 41.4766 26.4864 41.6854 26.6377C41.8943 26.789 42.0475 27.0015 42.1195 27.2397L42.4337 28.2803C42.5169 28.5559 42.485 28.8448 42.345 29.0835C42.2051 29.3222 41.9685 29.4911 41.6874 29.5531L36.6595 30.6595L30.6532 40.9029C30.3344 41.4466 29.6946 41.7585 28.8343 41.854C28.4294 41.8988 27.9807 41.8966 27.4882 41.8473L29.7656 37.9633C29.8356 37.8439 29.8516 37.6995 29.81 37.5616C29.7684 37.4238 29.6726 37.3039 29.5438 37.2284C29.4149 37.1529 29.2636 37.1278 29.123 37.1588C28.9824 37.1898 28.8641 37.2742 28.7941 37.3936L26.2965 41.653C24.7121 41.3046 22.8715 40.5737 21.0333 39.4958C16.7409 36.9789 14.0878 33.5278 15.108 31.7878L16.3636 29.6464L14.6528 23.9826C14.6115 23.8461 14.598 23.7048 14.6132 23.5668C14.6284 23.4289 14.6719 23.297 14.7412 23.1787C14.8106 23.0604 14.9045 22.9581 15.0174 22.8775C15.1304 22.7969 15.2603 22.7396 15.3996 22.709L16.4606 22.4759C16.7418 22.414 17.0444 22.4641 17.3021 22.6152C17.5597 22.7662 17.7512 23.0059 17.8344 23.2815L18.602 25.829ZM40.6814 23.8006C39.6611 25.5405 35.3539 24.9104 31.0615 22.3935C26.769 19.8766 24.1159 16.4254 25.1362 14.6855C26.1564 12.9455 30.4636 13.5757 34.7561 16.0926C39.0485 18.6095 41.7016 22.0607 40.6814 23.8006Z" fill="#2A254B"/>
<path d="M73.08 41.36C71.832 41.36 70.836 40.976 70.092 40.208C69.348 39.416 68.82 38.192 68.508 36.536L64.836 17.6C64.788 17.312 64.764 17.12 64.764 17.024C64.764 16.52 64.92 16.136 65.232 15.872C65.568 15.584 66.036 15.44 66.636 15.44C67.284 15.44 67.776 15.584 68.112 15.872C68.472 16.136 68.712 16.556 68.832 17.132L72.396 36.824C72.492 37.304 72.588 37.64 72.684 37.832C72.804 38 72.972 38.084 73.188 38.084C73.62 38.084 73.884 37.676 73.98 36.86L76.428 19.184C76.596 18.008 77.016 17.096 77.688 16.448C78.384 15.776 79.26 15.44 80.316 15.44C81.396 15.44 82.272 15.776 82.944 16.448C83.616 17.096 84.036 18.008 84.204 19.184L86.688 36.86C86.736 37.292 86.82 37.604 86.94 37.796C87.06 37.988 87.24 38.084 87.48 38.084C87.672 38.084 87.816 38 87.912 37.832C88.032 37.64 88.152 37.304 88.272 36.824L91.8 17.132C91.92 16.556 92.148 16.136 92.484 15.872C92.844 15.584 93.348 15.44 93.996 15.44C94.596 15.44 95.064 15.584 95.4 15.872C95.736 16.136 95.904 16.52 95.904 17.024C95.904 17.12 95.88 17.312 95.832 17.6L92.124 36.536C91.812 38.168 91.284 39.38 90.54 40.172C89.82 40.964 88.836 41.36 87.588 41.36C86.34 41.36 85.368 40.976 84.672 40.208C83.976 39.44 83.52 38.252 83.304 36.644L80.928 19.832C80.88 19.424 80.808 19.136 80.712 18.968C80.616 18.8 80.484 18.716 80.316 18.716C80.148 18.716 80.016 18.8 79.92 18.968C79.824 19.136 79.752 19.424 79.704 19.832L77.364 36.644C77.124 38.252 76.656 39.44 75.96 40.208C75.288 40.976 74.328 41.36 73.08 41.36ZM107.856 41.36C105.768 41.36 103.932 40.976 102.348 40.208C100.764 39.416 99.5397 38.324 98.6757 36.932C97.8357 35.54 97.4157 33.956 97.4157 32.18C97.4157 30.404 97.8357 28.82 98.6757 27.428C99.5397 26.036 100.764 24.956 102.348 24.188C103.932 23.396 105.768 23 107.856 23C109.944 23 111.78 23.396 113.364 24.188C114.948 24.956 116.16 26.036 117 27.428C117.864 28.82 118.296 30.404 118.296 32.18C118.296 33.956 117.864 35.54 117 36.932C116.16 38.324 114.948 39.416 113.364 40.208C111.78 40.976 109.944 41.36 107.856 41.36ZM107.856 38.12C109.8 38.12 111.348 37.592 112.5 36.536C113.652 35.48 114.228 34.028 114.228 32.18C114.228 30.332 113.652 28.88 112.5 27.824C111.348 26.768 109.8 26.24 107.856 26.24C105.888 26.24 104.328 26.768 103.176 27.824C102.048 28.88 101.484 30.332 101.484 32.18C101.484 34.028 102.048 35.48 103.176 36.536C104.328 37.592 105.888 38.12 107.856 38.12ZM130.637 41.36C128.549 41.36 126.713 40.976 125.129 40.208C123.545 39.416 122.321 38.324 121.457 36.932C120.617 35.54 120.197 33.956 120.197 32.18C120.197 30.404 120.617 28.82 121.457 27.428C122.321 26.036 123.545 24.956 125.129 24.188C126.713 23.396 128.549 23 130.637 23C132.725 23 134.561 23.396 136.145 24.188C137.729 24.956 138.941 26.036 139.781 27.428C140.645 28.82 141.077 30.404 141.077 32.18C141.077 33.956 140.645 35.54 139.781 36.932C138.941 38.324 137.729 39.416 136.145 40.208C134.561 40.976 132.725 41.36 130.637 41.36ZM130.637 38.12C132.581 38.12 134.129 37.592 135.281 36.536C136.433 35.48 137.009 34.028 137.009 32.18C137.009 30.332 136.433 28.88 135.281 27.824C134.129 26.768 132.581 26.24 130.637 26.24C128.669 26.24 127.109 26.768 125.957 27.824C124.829 28.88 124.265 30.332 124.265 32.18C124.265 34.028 124.829 35.48 125.957 36.536C127.109 37.592 128.669 38.12 130.637 38.12ZM153.468 41.36C151.572 41.36 149.892 41 148.428 40.28C146.988 39.536 145.86 38.48 145.044 37.112C144.252 35.72 143.856 34.088 143.856 32.216C143.856 30.368 144.24 28.748 145.008 27.356C145.8 25.964 146.928 24.896 148.392 24.152C149.856 23.384 151.584 23 153.576 23C155.136 23 156.456 23.264 157.536 23.792C158.616 24.32 159.6 25.088 160.488 26.096L160.524 15.584C160.524 14.984 160.704 14.516 161.064 14.18C161.424 13.844 161.916 13.676 162.54 13.676C163.164 13.676 163.656 13.844 164.016 14.18C164.376 14.516 164.556 14.984 164.556 15.584V39.452C164.556 40.052 164.376 40.52 164.016 40.856C163.656 41.192 163.164 41.36 162.54 41.36C161.94 41.36 161.448 41.192 161.064 40.856C160.704 40.496 160.524 40.028 160.524 39.452V38.192C158.868 40.304 156.516 41.36 153.468 41.36ZM154.044 38.12C156.06 38.12 157.644 37.592 158.796 36.536C159.948 35.48 160.524 34.028 160.524 32.18C160.524 30.332 159.924 28.88 158.724 27.824C157.548 26.768 155.988 26.24 154.044 26.24C152.124 26.24 150.624 26.78 149.544 27.86C148.464 28.916 147.924 30.368 147.924 32.216C147.924 34.112 148.464 35.576 149.544 36.608C150.624 37.616 152.124 38.12 154.044 38.12ZM178.309 41.36C176.221 41.36 174.385 40.976 172.801 40.208C171.217 39.416 169.993 38.324 169.129 36.932C168.289 35.54 167.869 33.956 167.869 32.18C167.869 30.404 168.289 28.82 169.129 27.428C169.993 26.036 171.217 24.956 172.801 24.188C174.385 23.396 176.221 23 178.309 23C180.397 23 182.233 23.396 183.817 24.188C185.401 24.956 186.613 26.036 187.453 27.428C188.317 28.82 188.749 30.404 188.749 32.18C188.749 33.956 188.317 35.54 187.453 36.932C186.613 38.324 185.401 39.416 183.817 40.208C182.233 40.976 180.397 41.36 178.309 41.36ZM178.309 38.12C180.253 38.12 181.801 37.592 182.953 36.536C184.105 35.48 184.681 34.028 184.681 32.18C184.681 30.332 184.105 28.88 182.953 27.824C181.801 26.768 180.253 26.24 178.309 26.24C176.341 26.24 174.781 26.768 173.629 27.824C172.501 28.88 171.937 30.332 171.937 32.18C171.937 34.028 172.501 35.48 173.629 36.536C174.781 37.592 176.341 38.12 178.309 38.12ZM194.12 41.36C193.496 41.36 193.004 41.192 192.644 40.856C192.284 40.52 192.104 40.052 192.104 39.452V24.908C192.104 24.308 192.272 23.84 192.608 23.504C192.968 23.168 193.448 23 194.048 23C194.672 23 195.152 23.168 195.488 23.504C195.848 23.84 196.028 24.308 196.028 24.908V26.42C197.588 24.38 199.64 23.36 202.184 23.36H203.012C203.66 23.36 204.164 23.504 204.524 23.792C204.908 24.08 205.1 24.476 205.1 24.98C205.1 25.508 204.908 25.916 204.524 26.204C204.164 26.468 203.66 26.6 203.012 26.6H201.86C200.108 26.6 198.716 27.14 197.684 28.22C196.652 29.276 196.136 30.728 196.136 32.576V39.452C196.136 40.028 195.944 40.496 195.56 40.856C195.2 41.192 194.72 41.36 194.12 41.36ZM213.186 41.36C210.906 41.36 209.082 40.82 207.714 39.74C206.346 38.66 205.662 37.22 205.662 35.42C205.662 33.644 206.382 32.228 207.822 31.172C209.286 30.116 211.254 29.588 213.726 29.588C216.126 29.588 217.998 30.14 219.342 31.244V29.876C219.342 28.676 218.958 27.764 218.19 27.14C217.446 26.492 216.342 26.168 214.878 26.168C212.814 26.168 211.038 26.624 209.55 27.536C209.046 27.824 208.59 27.968 208.182 27.968C207.75 27.968 207.354 27.776 206.994 27.392C206.754 27.128 206.634 26.816 206.634 26.456C206.634 25.88 206.886 25.424 207.39 25.088C208.254 24.44 209.346 23.936 210.666 23.576C211.986 23.192 213.366 23 214.806 23C217.518 23 219.642 23.612 221.178 24.836C222.714 26.06 223.482 27.752 223.482 29.912V39.56C223.482 40.112 223.302 40.556 222.942 40.892C222.582 41.204 222.09 41.36 221.466 41.36C220.842 41.36 220.35 41.204 219.99 40.892C219.654 40.58 219.486 40.148 219.486 39.596V38.912C218.07 40.544 215.97 41.36 213.186 41.36ZM214.05 38.408C215.682 38.408 216.978 38.144 217.938 37.616C218.898 37.064 219.378 36.32 219.378 35.384C219.378 34.472 218.91 33.752 217.974 33.224C217.038 32.696 215.754 32.432 214.122 32.432C212.706 32.432 211.602 32.696 210.81 33.224C210.042 33.752 209.658 34.484 209.658 35.42C209.658 36.38 210.03 37.124 210.774 37.652C211.542 38.156 212.634 38.408 214.05 38.408Z" fill="#F6BB41"/>
</svg>
