<svg width="214" height="47" viewBox="0 0 214 47" fill="none" xmlns="http://www.w3.org/2000/svg">
<rect y="2" width="43" height="43" rx="5" fill="#2A254B"/>
<path d="M19.5626 21.4674C19.4619 21.4083 19.3436 21.3888 19.2336 21.413C19.1237 21.4372 19.0312 21.5032 18.9765 21.5966L17.3259 24.4115C17.2712 24.5048 17.2588 24.6178 17.2913 24.7255C17.3238 24.8333 17.3987 24.927 17.4994 24.9861C17.6002 25.0451 17.7185 25.0647 17.8284 25.0405C17.9383 25.0163 18.0308 24.9502 18.0855 24.8569L19.7361 22.042C19.7908 21.9486 19.8033 21.8357 19.7708 21.7279C19.7382 21.6202 19.6634 21.5265 19.5626 21.4674ZM25.1097 18.1002C27.207 19.3299 29.2543 19.736 29.6814 19.0077C30.1085 18.2793 28.7536 16.6905 26.6571 15.4612C24.5606 14.2319 22.5125 13.8253 22.0854 14.5537C21.6584 15.282 23.0125 16.8704 25.1097 18.1002ZM25.5224 17.3964C24.2637 16.6584 23.4284 15.745 23.6562 15.3565C23.884 14.968 25.089 15.2509 26.3476 15.989C27.6063 16.727 28.4416 17.6404 28.2138 18.0289C27.986 18.4174 26.781 18.1345 25.5224 17.3964Z" fill="#FFC857"/>
<path d="M34.5873 22.9312C34.3971 22.3011 33.9653 21.7504 33.3826 21.3945C33.7948 20.6167 33.7634 19.7632 33.5555 19.0314C33.3415 18.277 32.9184 17.5485 32.4122 16.8904C31.3945 15.5674 29.8349 14.251 27.9967 13.1731C26.1607 12.0966 24.2497 11.378 22.5989 11.1363C21.7774 11.0159 20.9343 11.0019 20.1722 11.1839C19.3996 11.3683 18.6052 11.7848 18.1327 12.5906L14.6723 18.4921C14.3488 18.2376 13.9729 18.0558 13.5746 17.9611C13.1763 17.8665 12.7667 17.8618 12.3786 17.9472L11.5491 18.1294C11.2225 18.2014 10.9181 18.3357 10.6534 18.5247C10.3886 18.7137 10.1687 18.9537 10.0061 19.2309C9.84353 19.5082 9.74149 19.8174 9.70583 20.1407C9.67017 20.464 9.70158 20.7952 9.79827 21.1154L10.9321 24.8707L10.2925 25.9615C9.82004 26.7673 9.84447 27.6639 10.0604 28.4289C10.2749 29.1826 10.6992 29.9108 11.205 30.5696C12.2219 31.8922 13.7815 33.2086 15.6189 34.286C17.1989 35.2124 18.8226 35.8676 20.2829 36.1886C21.1619 36.3815 22.0467 36.4672 22.8536 36.3776C23.808 36.2715 24.8906 35.8821 25.4844 34.8695L29.8378 27.4451L33.0826 26.73C33.4092 26.6581 33.7135 26.5238 33.9783 26.3348C34.243 26.1458 34.463 25.9058 34.6256 25.6285C34.7881 25.3512 34.8902 25.0421 34.9258 24.7188C34.9615 24.3954 34.9301 24.0642 34.8334 23.7441L34.5873 22.9312ZM14.5434 22.1936L18.2304 15.9057C18.3756 16.2046 18.5487 16.4962 18.7399 16.7776L17.1104 19.5566C17.0556 19.65 17.0432 19.7629 17.0757 19.8707C17.1083 19.9784 17.1831 20.0721 17.2838 20.1312C17.3846 20.1903 17.5029 20.2098 17.6128 20.1856C17.7228 20.1614 17.8152 20.0954 17.87 20.002L19.3163 17.5355C20.3287 18.7438 21.7782 19.9294 23.4591 20.9151C25.2958 21.9921 27.2069 22.7107 28.8569 22.9519C29.6796 23.0721 30.5223 23.0868 31.2844 22.9047C31.5358 22.8451 31.7892 22.761 32.0328 22.6467C32.2303 22.6443 32.4272 22.7076 32.5904 22.8259C32.7537 22.9442 32.8735 23.1103 32.9298 23.2965L33.1754 24.1101C33.2405 24.3255 33.2155 24.5514 33.1061 24.738C32.9967 24.9246 32.8117 25.0567 32.592 25.1051L28.6611 25.9702L23.9652 33.9787C23.716 34.4037 23.2158 34.6476 22.5432 34.7222C22.2266 34.7573 21.8758 34.7555 21.4908 34.717L23.2713 31.6804C23.3261 31.5871 23.3385 31.4741 23.306 31.3664C23.2734 31.2586 23.1986 31.1649 23.0979 31.1058C22.9971 31.0468 22.8788 31.0272 22.7689 31.0514C22.6589 31.0757 22.5665 31.1417 22.5117 31.235L20.5591 34.5651C19.3204 34.2927 17.8814 33.7212 16.4442 32.8785C13.0883 30.9108 11.0141 28.2126 11.8117 26.8523L12.7934 25.1781L11.4558 20.7501C11.4235 20.6433 11.413 20.5328 11.4249 20.425C11.4367 20.3171 11.4708 20.214 11.525 20.1216C11.5792 20.0291 11.6526 19.949 11.7409 19.886C11.8292 19.823 11.9308 19.7782 12.0397 19.7543L12.8692 19.5721C13.089 19.5237 13.3257 19.5628 13.5271 19.6809C13.7285 19.7991 13.8782 19.9864 13.9433 20.2019L14.5434 22.1936ZM31.8054 20.6077C31.0078 21.9681 27.6403 21.4754 24.2844 19.5076C20.9285 17.5399 18.8543 14.8417 19.6519 13.4814C20.4496 12.1211 23.817 12.6137 27.1729 14.5815C30.5288 16.5493 32.6031 19.2474 31.8054 20.6077Z" fill="#FFC857"/>
<path d="M61.08 37.36C59.832 37.36 58.836 36.976 58.092 36.208C57.348 35.416 56.82 34.192 56.508 32.536L52.836 13.6C52.788 13.312 52.764 13.12 52.764 13.024C52.764 12.52 52.92 12.136 53.232 11.872C53.568 11.584 54.036 11.44 54.636 11.44C55.284 11.44 55.776 11.584 56.112 11.872C56.472 12.136 56.712 12.556 56.832 13.132L60.396 32.824C60.492 33.304 60.588 33.64 60.684 33.832C60.804 34 60.972 34.084 61.188 34.084C61.62 34.084 61.884 33.676 61.98 32.86L64.428 15.184C64.596 14.008 65.016 13.096 65.688 12.448C66.384 11.776 67.26 11.44 68.316 11.44C69.396 11.44 70.272 11.776 70.944 12.448C71.616 13.096 72.036 14.008 72.204 15.184L74.688 32.86C74.736 33.292 74.82 33.604 74.94 33.796C75.06 33.988 75.24 34.084 75.48 34.084C75.672 34.084 75.816 34 75.912 33.832C76.032 33.64 76.152 33.304 76.272 32.824L79.8 13.132C79.92 12.556 80.148 12.136 80.484 11.872C80.844 11.584 81.348 11.44 81.996 11.44C82.596 11.44 83.064 11.584 83.4 11.872C83.736 12.136 83.904 12.52 83.904 13.024C83.904 13.12 83.88 13.312 83.832 13.6L80.124 32.536C79.812 34.168 79.284 35.38 78.54 36.172C77.82 36.964 76.836 37.36 75.588 37.36C74.34 37.36 73.368 36.976 72.672 36.208C71.976 35.44 71.52 34.252 71.304 32.644L68.928 15.832C68.88 15.424 68.808 15.136 68.712 14.968C68.616 14.8 68.484 14.716 68.316 14.716C68.148 14.716 68.016 14.8 67.92 14.968C67.824 15.136 67.752 15.424 67.704 15.832L65.364 32.644C65.124 34.252 64.656 35.44 63.96 36.208C63.288 36.976 62.328 37.36 61.08 37.36ZM95.8557 37.36C93.7677 37.36 91.9317 36.976 90.3477 36.208C88.7637 35.416 87.5397 34.324 86.6757 32.932C85.8357 31.54 85.4157 29.956 85.4157 28.18C85.4157 26.404 85.8357 24.82 86.6757 23.428C87.5397 22.036 88.7637 20.956 90.3477 20.188C91.9317 19.396 93.7677 19 95.8557 19C97.9437 19 99.7797 19.396 101.364 20.188C102.948 20.956 104.16 22.036 105 23.428C105.864 24.82 106.296 26.404 106.296 28.18C106.296 29.956 105.864 31.54 105 32.932C104.16 34.324 102.948 35.416 101.364 36.208C99.7797 36.976 97.9437 37.36 95.8557 37.36ZM95.8557 34.12C97.7997 34.12 99.3477 33.592 100.5 32.536C101.652 31.48 102.228 30.028 102.228 28.18C102.228 26.332 101.652 24.88 100.5 23.824C99.3477 22.768 97.7997 22.24 95.8557 22.24C93.8877 22.24 92.3277 22.768 91.1757 23.824C90.0477 24.88 89.4837 26.332 89.4837 28.18C89.4837 30.028 90.0477 31.48 91.1757 32.536C92.3277 33.592 93.8877 34.12 95.8557 34.12ZM118.637 37.36C116.549 37.36 114.713 36.976 113.129 36.208C111.545 35.416 110.321 34.324 109.457 32.932C108.617 31.54 108.197 29.956 108.197 28.18C108.197 26.404 108.617 24.82 109.457 23.428C110.321 22.036 111.545 20.956 113.129 20.188C114.713 19.396 116.549 19 118.637 19C120.725 19 122.561 19.396 124.145 20.188C125.729 20.956 126.941 22.036 127.781 23.428C128.645 24.82 129.077 26.404 129.077 28.18C129.077 29.956 128.645 31.54 127.781 32.932C126.941 34.324 125.729 35.416 124.145 36.208C122.561 36.976 120.725 37.36 118.637 37.36ZM118.637 34.12C120.581 34.12 122.129 33.592 123.281 32.536C124.433 31.48 125.009 30.028 125.009 28.18C125.009 26.332 124.433 24.88 123.281 23.824C122.129 22.768 120.581 22.24 118.637 22.24C116.669 22.24 115.109 22.768 113.957 23.824C112.829 24.88 112.265 26.332 112.265 28.18C112.265 30.028 112.829 31.48 113.957 32.536C115.109 33.592 116.669 34.12 118.637 34.12ZM141.468 37.36C139.572 37.36 137.892 37 136.428 36.28C134.988 35.536 133.86 34.48 133.044 33.112C132.252 31.72 131.856 30.088 131.856 28.216C131.856 26.368 132.24 24.748 133.008 23.356C133.8 21.964 134.928 20.896 136.392 20.152C137.856 19.384 139.584 19 141.576 19C143.136 19 144.456 19.264 145.536 19.792C146.616 20.32 147.6 21.088 148.488 22.096L148.524 11.584C148.524 10.984 148.704 10.516 149.064 10.18C149.424 9.844 149.916 9.676 150.54 9.676C151.164 9.676 151.656 9.844 152.016 10.18C152.376 10.516 152.556 10.984 152.556 11.584V35.452C152.556 36.052 152.376 36.52 152.016 36.856C151.656 37.192 151.164 37.36 150.54 37.36C149.94 37.36 149.448 37.192 149.064 36.856C148.704 36.496 148.524 36.028 148.524 35.452V34.192C146.868 36.304 144.516 37.36 141.468 37.36ZM142.044 34.12C144.06 34.12 145.644 33.592 146.796 32.536C147.948 31.48 148.524 30.028 148.524 28.18C148.524 26.332 147.924 24.88 146.724 23.824C145.548 22.768 143.988 22.24 142.044 22.24C140.124 22.24 138.624 22.78 137.544 23.86C136.464 24.916 135.924 26.368 135.924 28.216C135.924 30.112 136.464 31.576 137.544 32.608C138.624 33.616 140.124 34.12 142.044 34.12ZM182.12 37.36C181.496 37.36 181.004 37.192 180.644 36.856C180.284 36.52 180.104 36.052 180.104 35.452V20.908C180.104 20.308 180.272 19.84 180.608 19.504C180.968 19.168 181.448 19 182.048 19C182.672 19 183.152 19.168 183.488 19.504C183.848 19.84 184.028 20.308 184.028 20.908V22.42C185.588 20.38 187.64 19.36 190.184 19.36H191.012C191.66 19.36 192.164 19.504 192.524 19.792C192.908 20.08 193.1 20.476 193.1 20.98C193.1 21.508 192.908 21.916 192.524 22.204C192.164 22.468 191.66 22.6 191.012 22.6H189.86C188.108 22.6 186.716 23.14 185.684 24.22C184.652 25.276 184.136 26.728 184.136 28.576V35.452C184.136 36.028 183.944 36.496 183.56 36.856C183.2 37.192 182.72 37.36 182.12 37.36ZM201.186 37.36C198.906 37.36 197.082 36.82 195.714 35.74C194.346 34.66 193.662 33.22 193.662 31.42C193.662 29.644 194.382 28.228 195.822 27.172C197.286 26.116 199.254 25.588 201.726 25.588C204.126 25.588 205.998 26.14 207.342 27.244V25.876C207.342 24.676 206.958 23.764 206.19 23.14C205.446 22.492 204.342 22.168 202.878 22.168C200.814 22.168 199.038 22.624 197.55 23.536C197.046 23.824 196.59 23.968 196.182 23.968C195.75 23.968 195.354 23.776 194.994 23.392C194.754 23.128 194.634 22.816 194.634 22.456C194.634 21.88 194.886 21.424 195.39 21.088C196.254 20.44 197.346 19.936 198.666 19.576C199.986 19.192 201.366 19 202.806 19C205.518 19 207.642 19.612 209.178 20.836C210.714 22.06 211.482 23.752 211.482 25.912V35.56C211.482 36.112 211.302 36.556 210.942 36.892C210.582 37.204 210.09 37.36 209.466 37.36C208.842 37.36 208.35 37.204 207.99 36.892C207.654 36.58 207.486 36.148 207.486 35.596V34.912C206.07 36.544 203.97 37.36 201.186 37.36ZM202.05 34.408C203.682 34.408 204.978 34.144 205.938 33.616C206.898 33.064 207.378 32.32 207.378 31.384C207.378 30.472 206.91 29.752 205.974 29.224C205.038 28.696 203.754 28.432 202.122 28.432C200.706 28.432 199.602 28.696 198.81 29.224C198.042 29.752 197.658 30.484 197.658 31.42C197.658 32.38 198.03 33.124 198.774 33.652C199.542 34.156 200.634 34.408 202.05 34.408Z" fill="#2A254B"/>
<path d="M166.309 37.36C164.221 37.36 162.385 36.976 160.801 36.208C159.217 35.416 157.993 34.324 157.129 32.932C156.289 31.54 155.869 29.956 155.869 28.18C155.869 26.404 156.289 24.82 157.129 23.428C157.993 22.036 159.217 20.956 160.801 20.188C162.385 19.396 164.221 19 166.309 19C168.397 19 170.233 19.396 171.817 20.188C173.401 20.956 174.613 22.036 175.453 23.428C176.317 24.82 176.749 26.404 176.749 28.18C176.749 29.956 176.317 31.54 175.453 32.932C174.613 34.324 173.401 35.416 171.817 36.208C170.233 36.976 168.397 37.36 166.309 37.36ZM166.309 34.12C168.253 34.12 169.801 33.592 170.953 32.536C172.105 31.48 172.681 30.028 172.681 28.18C172.681 26.332 172.105 24.88 170.953 23.824C169.801 22.768 168.253 22.24 166.309 22.24C164.341 22.24 162.781 22.768 161.629 23.824C160.501 24.88 159.937 26.332 159.937 28.18C159.937 30.028 160.501 31.48 161.629 32.536C162.781 33.592 164.341 34.12 166.309 34.12Z" fill="#FFC857"/>
</svg>
