<svg width="55" height="55" viewBox="0 0 55 55" fill="none" xmlns="http://www.w3.org/2000/svg">
<rect width="55" height="55" rx="5" fill="#2A254B"/>
<path d="M25.022 24.9002C24.8931 24.8246 24.7418 24.7996 24.6012 24.8306C24.4606 24.8615 24.3423 24.946 24.2723 25.0654L22.1611 28.6659C22.0911 28.7852 22.0752 28.9297 22.1168 29.0675C22.1584 29.2054 22.2541 29.3252 22.383 29.4008C22.5118 29.4763 22.6632 29.5014 22.8038 29.4704C22.9444 29.4394 23.0627 29.3549 23.1327 29.2356L25.2439 25.6351C25.3139 25.5157 25.3298 25.3712 25.2882 25.2334C25.2466 25.0956 25.1508 24.9757 25.022 24.9002ZM32.1171 20.5932C34.7996 22.1662 37.4183 22.6856 37.9646 21.754C38.5108 20.8223 36.7779 18.7901 34.0963 17.2178C31.4148 15.6454 28.7951 15.1254 28.2488 16.057C27.7025 16.9887 29.4346 19.0203 32.1171 20.5932ZM32.6449 19.6931C31.035 18.7491 29.9666 17.5808 30.2579 17.0839C30.5493 16.587 32.0906 16.9489 33.7005 17.8929C35.3104 18.8368 36.3787 20.0052 36.0874 20.5021C35.7961 20.9989 34.2548 20.6371 32.6449 19.6931Z" fill="#F6BB41"/>
<path d="M44.2396 26.7725C43.9962 25.9665 43.444 25.2621 42.6987 24.8069C43.2258 23.812 43.1857 22.7204 42.9199 21.7843C42.6461 20.8194 42.1049 19.8876 41.4574 19.0459C40.1557 17.3536 38.1609 15.6699 35.8097 14.2912C33.4614 12.9143 31.017 11.9951 28.9056 11.686C27.8548 11.5319 26.7764 11.514 25.8017 11.7469C24.8134 11.9827 23.7973 12.5154 23.193 13.5461L18.7669 21.0945C18.3531 20.769 17.8722 20.5364 17.3628 20.4154C16.8534 20.2944 16.3295 20.2883 15.8331 20.3976L14.7721 20.6306C14.3544 20.7227 13.9651 20.8945 13.6264 21.1362C13.2878 21.378 13.0065 21.6849 12.7985 22.0396C12.5906 22.3942 12.46 22.7896 12.4144 23.2032C12.3688 23.6168 12.409 24.0404 12.5327 24.4499L13.9829 29.2532L13.1648 30.6484C12.5605 31.6791 12.5918 32.826 12.868 33.8044C13.1422 34.7684 13.6849 35.6999 14.332 36.5426C15.6327 38.2342 17.6275 39.918 19.9777 41.2961C21.9986 42.481 24.0754 43.319 25.9432 43.7296C27.0676 43.9764 28.1993 44.086 29.2313 43.9714C30.452 43.8356 31.8368 43.3376 32.5963 42.0423L38.1646 32.546L42.3149 31.6314C42.7326 31.5394 43.1219 31.3676 43.4606 31.1258C43.7992 30.8841 44.0805 30.5771 44.2885 30.2225C44.4964 29.8678 44.627 29.4724 44.6726 29.0589C44.7182 28.6453 44.678 28.2217 44.5543 27.8122L44.2396 26.7725ZM18.602 25.829L23.3179 17.7864C23.5037 18.1687 23.725 18.5416 23.9696 18.9016L21.8853 22.4562C21.8154 22.5755 21.7994 22.72 21.841 22.8578C21.8826 22.9957 21.9784 23.1155 22.1072 23.1911C22.2361 23.2666 22.3874 23.2917 22.528 23.2607C22.6686 23.2297 22.7869 23.1452 22.8569 23.0259L24.7069 19.8709C26.0019 21.4165 27.8558 22.933 30.0059 24.1937C32.3551 25.5712 34.7995 26.4904 36.91 26.799C37.9622 26.9527 39.0401 26.9715 40.0149 26.7386C40.3364 26.6623 40.6606 26.5548 40.9722 26.4085C41.2248 26.4055 41.4766 26.4864 41.6854 26.6377C41.8943 26.789 42.0475 27.0015 42.1195 27.2397L42.4337 28.2803C42.5169 28.5559 42.485 28.8448 42.345 29.0835C42.2051 29.3222 41.9685 29.4911 41.6874 29.5531L36.6595 30.6595L30.6532 40.9029C30.3344 41.4466 29.6946 41.7585 28.8343 41.854C28.4294 41.8988 27.9807 41.8966 27.4882 41.8473L29.7656 37.9633C29.8356 37.8439 29.8516 37.6995 29.81 37.5616C29.7684 37.4238 29.6726 37.3039 29.5438 37.2284C29.4149 37.1529 29.2636 37.1278 29.123 37.1588C28.9824 37.1898 28.8641 37.2742 28.7941 37.3936L26.2965 41.653C24.7121 41.3046 22.8715 40.5737 21.0333 39.4958C16.7409 36.9789 14.0878 33.5278 15.108 31.7878L16.3636 29.6464L14.6528 23.9826C14.6115 23.8461 14.598 23.7048 14.6132 23.5668C14.6284 23.4289 14.6719 23.297 14.7412 23.1787C14.8106 23.0604 14.9045 22.9581 15.0174 22.8775C15.1304 22.7969 15.2603 22.7396 15.3996 22.709L16.4606 22.4759C16.7418 22.414 17.0444 22.4641 17.3021 22.6152C17.5597 22.7662 17.7512 23.0059 17.8344 23.2815L18.602 25.829ZM40.6814 23.8006C39.6611 25.5405 35.3539 24.9104 31.0615 22.3935C26.769 19.8766 24.1159 16.4254 25.1362 14.6855C26.1564 12.9455 30.4636 13.5757 34.7561 16.0926C39.0485 18.6095 41.7016 22.0607 40.6814 23.8006Z" fill="#F6BB41"/>
</svg>
